<?xml version="1.0" encoding="utf-8"?>
<svg viewBox="0 0 500 500" xmlns="http://www.w3.org/2000/svg">
  <defs>
    <pattern id="pattern-0" x="0" y="0" width="20" height="20" patternUnits="userSpaceOnUse" viewBox="0 0 100 100">
      <path d="M 0 0 L 50 0 L 50 100 L 0 100 Z" style="fill: black;"/>
    </pattern>
  </defs>
  <path style="fill: rgb(255, 255, 255); stroke: rgb(0, 0, 0); stroke-miterlimit: 4; stroke-dasharray: none; stroke-width: 24.1239;" d="M 145.686 14.63 C 141.613 8.89 130.833 68.155 113.248 128.344 C 108.415 144.89 115.288 161.582 117.782 176.059 C 121.971 183.412 126.134 194.145 129.663 207.523 C 130.852 212.029 131.89 216.619 132.816 221.212 C 123.039 245.985 117.522 274.055 117.522 303.808 C 117.522 331.213 122.224 357.181 130.601 380.471 C 146.382 392.392 161.695 409.741 174.269 431.302 C 180.153 441.39 185.014 451.718 188.888 461.98 C 209.024 476.655 232.243 485.043 256.97 485.043 C 280.324 485.043 302.327 477.571 321.665 464.381 C 325.671 453.331 330.362 441.894 337.169 431.302 C 350.642 410.34 367.256 390.2 384.224 378 C 395.979 359.286 397.512 331.335 396.418 303.808 C 395.283 275.244 391.314 248.191 382.244 224.145 C 383.028 218.304 384.004 212.46 385.214 206.717 C 388.261 192.245 392.179 180.77 396.288 173.244 C 397.911 159.088 403.396 142.737 398.19 126.913 C 377.42 63.769 380.058 117.247 374.011 122.306 C 366.364 128.705 325.935 65.939 327.529 128.344 C 327.702 135.15 328.069 141.8 328.596 148.266 C 307.662 131.942 282.324 152.098 256.136 152.098 C 229.291 152.098 205.058 132.425 183.779 149.512 C 184.059 142.203 184.108 134.65 183.911 126.913 C 182.317 64.508 171.016 50.32 145.686 14.63 Z" id="path2987"/>
  <path id="path3763" d="M 256.314 390.825 C 246.312 390.825 223.405 410.421 223.405 423.826 C 223.405 427.497 224.537 430.973 226.554 434.092 C 230.352 435.689 234.037 438.012 237.065 440.902 C 238.481 442.253 239.65 443.635 240.582 445.009 C 245.429 446.974 251.018 448.098 256.97 448.098 C 262.593 448.098 267.889 447.097 272.542 445.33 C 273.509 443.851 274.748 442.358 276.274 440.902 C 279.518 437.806 283.517 435.361 287.6 433.762 C 289.485 430.731 290.537 427.367 290.537 423.826 C 290.537 410.421 266.971 390.825 256.314 390.825 Z" style="fill: rgb(0, 0, 0); stroke: rgb(0, 0, 0); stroke-miterlimit: 4; stroke-dasharray: none; stroke-width: 24.1239;"/>
  <path style="fill: rgb(0, 0, 0); stroke: rgb(0, 0, 0); stroke-linecap: butt; stroke-linejoin: miter; stroke-miterlimit: 4; stroke-dasharray: none; stroke-width: 24.1239;" d="M 228.658 314.39 C 264.037 255.967 201.722 177.034 170.636 242.749 C 156.716 272.177 189.433 341.163 228.658 314.39 Z" id="path3779"/>
  <path style="fill: rgb(0, 0, 0); stroke: rgb(0, 0, 0); stroke-miterlimit: 4; stroke-width: 18;" d="M 323.461 270.414 C 323.461 276.224 318.143 280.937 311.582 280.937 C 305.022 280.937 299.702 276.224 299.702 270.414 C 299.702 264.6 305.022 259.888 311.582 259.888 C 318.143 259.888 323.461 264.6 323.461 270.414 Z" id="path3785"/>
  <path style="stroke: rgb(0, 0, 0); stroke-miterlimit: 4; fill: rgb(255, 255, 255); stroke-width: 24.1239;" d="M 232.976 268.819 C 232.976 284.42 220.013 297.069 204.021 297.069 C 188.032 297.069 175.068 284.42 175.068 268.819 C 175.068 253.21 188.032 240.565 204.021 240.565 C 220.013 240.565 232.976 253.21 232.976 268.819 Z" id="path-1"/>
</svg>