<?xml version="1.0" encoding="utf-8"?>
<!-- Made by BEE-K | www.bee-k.org -->
<svg version="1.1" id="Bludit" xmlns="http://www.w3.org/2000/svg" xmlns:xlink="http://www.w3.org/1999/xlink" x="0px" y="0px"
	 viewBox="0 0 500 500" style="enable-background:new 0 0 500 500;" xml:space="preserve">
<path id="Background_1_" style="fill:#FFD207;" d="M31.2,0h437.6C486,0,500,14,500,31.2v437.6c0,17.2-14,31.2-31.2,31.2l-437.6,0
	C14,500,0,486,0,468.8V31.2C0,14,14,0,31.2,0z"/>
<g id="Icon_1_" transform="matrix(1, 0, 0, 1, -20.225872, 4.855307)">
	<path id="Head_Background" style="fill:#FFFFFF;" d="M159.4,9.3c-4.1-5.8-14.9,53.8-32.6,114.2c-4.9,16.6,2,33.4,4.6,47.9
		c4.2,7.4,8.4,18.2,11.9,31.6c1.2,4.5,2.2,9.1,3.2,13.8c-9.8,24.9-15.4,53.1-15.4,83c0,27.5,4.7,53.6,13.1,77
		c15.9,12,31.2,29.4,43.9,51.1c5.9,10.1,10.8,20.5,14.7,30.8c20.2,14.7,43.6,23.2,68.4,23.2c23.5,0,45.6-7.5,65-20.8
		c4-11.1,8.7-22.6,15.6-33.2c13.5-21.1,30.2-41.3,47.3-53.5c11.8-18.8,13.3-46.9,12.2-74.5c-1.1-28.7-5.1-55.9-14.2-80
		c0.8-5.9,1.8-11.7,3-17.5c3.1-14.5,7-26.1,11.1-33.6c1.6-14.2,7.1-30.6,1.9-46.5c-20.9-63.4-18.2-9.7-24.3-4.6
		c-7.7,6.4-48.3-56.6-46.7,6.1c0.2,6.8,0.5,13.5,1.1,20c-21-16.4-46.5,3.9-72.8,3.9c-27,0-51.3-19.8-72.7-2.6
		c0.3-7.3,0.3-14.9,0.1-22.7C196.2,59.4,184.9,45.1,159.4,9.3z"/>
	<path id="Black_Stroke" d="M154.3,3.2c4.2-3,7.9-2.4,10.9,1.9l2.1,2.9c24.8,35,36,50.7,37.6,113.8c0.1,3.6,0.1,7.1,0.1,10.7
		c12.6-4.4,25.4-0.8,39,2.9c8.6,2.4,17.5,4.8,26.4,4.8c8.7,0,17.7-2.6,26.5-5.1c13.3-3.8,26-7.4,38.4-3.7c-0.1-2.5-0.2-5-0.3-7.8
		c-0.7-26.3,6.4-35,16.7-35.3c9.1-0.2,18.7,8,27,15.1c4.2,3.6,3.3,10.3,5.5,8.5c0.2-0.2,0.6-3.9,1.4-8.1c1.6-8.4,3.3-17.1,9.8-19.2
		c6.9-2.3,14.7,5.4,24.5,35.2c4.5,13.7,2.2,26.8,0,39.1c-0.6,3.7-1.3,7.3-1.6,10.5l-0.2,1.3l-0.7,1.2c-1.9,3.4-3.7,7.9-5.5,13.3
		c-1.8,5.4-3.4,11.6-4.9,18.3c-0.6,2.7-1.1,5.6-1.6,8.4c-0.4,2.3-0.7,4.6-1.1,6.8c4.4,12,7.6,24.7,9.8,37.9
		c2.3,13.7,3.6,27.9,4.2,42.6c0.6,14.2,0.4,28.5-1.3,41.8c-1.8,13.8-5.5,26.4-12,36.8l-0.7,1.2l-1.1,0.8c-7.6,5.5-15.2,12.7-22.5,21
		c-8.2,9.2-15.9,19.8-22.9,30.6c-3.2,5-5.9,10.2-8.3,15.5c-2.5,5.5-4.6,10.9-6.5,16.3l-0.8,2.2l-1.9,1.3
		c-10.4,7.1-21.6,12.6-33.4,16.4c-11.5,3.7-23.4,5.6-35.6,5.6c-13,0-25.6-2.2-37.7-6.3c-12.3-4.2-24-10.4-34.9-18.3l-1.7-1.3l-0.7-2
		c-1.9-4.9-4-10-6.5-15.1c-2.4-5-4.9-9.9-7.7-14.6c-6-10.3-12.6-19.5-19.6-27.6c-7.2-8.3-14.7-15.5-22.4-21.3l-1.7-1.3l-0.7-2
		c-4.4-12.3-7.9-25.3-10.2-38.7c-2.2-13.1-3.4-26.7-3.4-40.7c0-15.1,1.4-29.8,4-44c2.6-13.9,6.3-27.2,11.1-39.6
		c-0.3-1.4-0.6-3-1-4.7c-0.5-2.2-1.1-4.4-1.6-6.6c-1.7-6.4-3.5-12.1-5.4-17.1c-1.9-5.1-3.9-9.4-5.9-12.8l-0.6-1.1l-0.2-1.2
		c-0.6-3.3-1.4-7-2.3-10.8c-3-12.5-6.2-26-2-40.4c7.2-24.6,13.3-49.5,18.3-69.6C144.9,25.4,149.5,6.6,154.3,3.2L154.3,3.2z
		 M160.3,22.7c-1.8,7.2-4.7,18.7-8.1,32.6c-5,20.1-11.1,44.9-18.5,70.2c-3.1,10.7-0.3,22.3,2.2,33.1c0.8,3.5,1.7,6.9,2.3,10.4
		c2.1,3.9,4.2,8.5,6.2,13.7c2.1,5.5,4,11.6,5.8,18.5c0.6,2.4,1.2,4.7,1.7,7.1c0.5,2,1,4.4,1.5,7.1l0.4,2.1l-0.8,1.9
		c-4.8,12.3-8.6,25.3-11.1,38.9c-2.4,13.2-3.7,27.1-3.7,41.5c0,13.2,1.1,26,3.2,38.3c2,12,5,23.5,8.8,34.3
		c7.9,6.1,15.6,13.6,23,22.1c7.5,8.8,14.7,18.7,21.1,29.8c3.1,5.2,5.8,10.5,8.3,15.6c2.2,4.7,4.3,9.4,6.1,14.2
		c9.2,6.5,19,11.6,29.4,15.1c10.5,3.6,21.6,5.5,33.1,5.5c10.9,0,21.4-1.7,31.4-4.9c9.7-3.1,19-7.6,27.8-13.4
		c1.9-5,3.9-10.1,6.1-15.1c2.7-5.9,5.7-11.7,9.3-17.4c7.3-11.3,15.5-22.4,24.2-32.4c7.6-8.6,15.6-16.2,23.7-22.2
		c4.9-8.3,7.7-18.6,9.3-30c1.7-12.4,1.8-25.9,1.2-39.4c-0.6-14-1.8-27.7-4-40.8c-2.2-13-5.4-25.3-9.7-37l-0.6-1.7l0.2-1.8
		c0.4-3.1,0.9-6.1,1.4-9c0.5-3,1.1-6,1.7-9c1.6-7.5,3.4-14.2,5.3-19.9c1.8-5.5,3.8-10.4,5.9-14.4c0.4-3.3,1-6.6,1.6-10
		c1.9-10.6,3.8-21.9,0.5-32.2c-6.4-19.4-5.5-26.4-6.6-26c-1.5,0.5,0.7,4-0.2,8.4c-1.3,6.7-2.5,13.2-6.2,16.3
		c-7,5.9-14.9-0.8-23.9-8.6c-6.4-5.5-13.8-11.8-17.4-11.7c-1.9,0.1-3.2,5.1-2.8,20.7c0.1,3.1,0.2,6.4,0.4,9.8c0.2,3,0.4,6.3,0.7,9.8
		l1.3,16.1l-12.8-10c-10.4-8.1-23.9-4.3-38-0.3c-9.7,2.8-19.8,5.6-30.4,5.6c-10.6,0-20.5-2.7-30.1-5.4c-14.2-3.9-27.3-7.5-38.1,1.2
		l-12.2,9.8l0.6-15.6c0.1-3.7,0.2-7.4,0.2-11c0-3.7,0-7.4-0.1-11.2C189.3,67.5,180.2,51,160.3,22.7L160.3,22.7z"/>
	<path id="Eye_Left" d="M250.6,247c-6.8-38-32.5-65.2-57.5-60.8v0c-25,4.5-39.7,38.9-32.9,76.9c6.4,35.7,29.4,61.8,52.8,61.2
		c6.4-12.7,18.2-22.1,32.4-24.9C251.8,285.4,254.1,266.7,250.6,247z M228.5,283.3c-3.8,3.3-8.9,5.4-14.4,5.4s-10.7-2.1-14.4-5.4
		c-4.1-3.6-6.6-8.6-6.6-14.3c0-5.6,2.5-10.7,6.6-14.3c3.8-3.3,8.9-5.4,14.4-5.4s10.7,2.1,14.4,5.4c4.1,3.6,6.6,8.6,6.6,14.3
		C235.1,274.6,232.6,279.7,228.5,283.3z"/>
	<path id="Eye_Right" d="M347.4,269c0,5.6-2.5,10.7-6.6,14.3c-3.8,3.3-8.9,5.4-14.4,5.4c-5.6,0-10.7-2.1-14.4-5.4
		c-4.1-3.6-6.6-8.6-6.6-14.3c0-5.6,2.5-10.7,6.6-14.3c3.8-3.3,8.9-5.4,14.4-5.4c5.6,0,10.7,2.1,14.4,5.4
		C344.9,258.4,347.4,263.4,347.4,269z"/>
	<path id="Nose" d="M269.6,377.2c-10,0-33.1,19.7-33.1,33.2c0,3.7,1.1,7.2,3.2,10.3c3.8,1.6,7.5,3.9,10.6,6.8
		c1.4,1.4,2.6,2.7,3.5,4.1c4.9,2,10.5,3.1,16.5,3.1c5.6,0,11-1,15.6-2.8c1-1.5,2.2-3,3.7-4.4c3.3-3.1,7.3-5.6,11.4-7.2
		c1.9-3,2.9-6.4,2.9-10C303.9,396.9,280.3,377.2,269.6,377.2L269.6,377.2z"/>
	<path id="Shadow" style="fill:#EBECEC;" d="M241.7,349c-2.6,0.9-6.2,0.5-7.9-0.9c-1.7-1.4-0.9-3.2,1.7-4.1c9-3,21.1-5.3,34.7-5.3
		c10.9,0,22.7,1.5,34.5,5.3c2.7,0.9,3.5,2.7,1.9,4.1c-1.7,1.4-5.2,1.8-7.8,1c-9.9-3.2-19.6-4.4-28.6-4.4
		C259.1,344.6,249.1,346.5,241.7,349L241.7,349z"/>
</g>
</svg>
