<?xml version="1.0" encoding="utf-8"?>
<!-- Made by BEE-K | www.bee-k.org -->
<svg version="1.1" id="Bludit" xmlns="http://www.w3.org/2000/svg" xmlns:xlink="http://www.w3.org/1999/xlink" x="0px" y="0px"
	 viewBox="0 0 500 500" style="enable-background:new 0 0 500 500;" xml:space="preserve">
<style type="text/css">
	.st0{fill:#FFD207;}
	.st1{fill:#FFFFFF;}
	.st2{fill:#EBECEC;}
</style>
<path id="Background_1_" class="st0" d="M31.2,0h437.6C486,0,500,14,500,31.2v437.6c0,17.2-14,31.2-31.2,31.2H31.2
	C14,500,0,486,0,468.8V31.2C0,14,14,0,31.2,0z"/>
<g id="Icon_1_" transform="matrix(1, 0, 0, 1, -20.225872, 4.855307)">
	<path id="Head_Background" class="st1" d="M405.8,488.8c0-16,27.4-39.4,39.3-39.4c12.7,0,40.7,23.4,40.7,39.3c0,2.2-0.3,4.4-1,6.5
		h4.1c17.2,0,31.2-14,31.2-31.2V298.7V174.3c-11.1-3.9-24.2-0.2-37.8,3.7c-11.5,3.3-23.5,6.6-36.1,6.6s-24.3-3.2-35.7-6.4
		c-16.9-4.6-32.4-8.9-45.2,1.4l-14.5,11.6l0.7-18.5c0.1-4.4,0.2-8.8,0.2-13.1c0-4.4,0-8.8-0.1-13.3c-1.9-64.7-12.7-84.3-36.3-117.9
		c-2.1,8.5-5.6,22.2-9.6,38.7c-5.9,23.9-13.2,53.3-22,83.3c-3.7,12.7-0.4,26.5,2.6,39.3c0.9,4.2,2,8.2,2.7,12.3
		c2.5,4.6,5,10.1,7.4,16.3c2.5,6.5,4.7,13.8,6.9,22c0.7,2.8,1.4,5.6,2,8.4c0.6,2.4,1.2,5.2,1.8,8.4l0.5,2.5l-0.9,2.3
		c-5.7,14.6-10.2,30-13.2,46.2c-2.8,15.7-4.4,32.2-4.4,49.3c0,15.7,1.3,30.9,3.8,45.5c2.4,14.2,5.9,27.9,10.4,40.7
		c9.4,7.2,18.5,16.1,27.3,26.2c6.6,7.7,12.9,16.1,18.8,25.2h57.3C406.2,493.1,405.8,491,405.8,488.8z"/>
	<path id="Shape" d="M477.6,161.9c-10.4,3-21.1,6.1-31.5,6.1c-10.6,0-21.1-2.8-31.3-5.7c-16.1-4.4-31.3-8.7-46.3-3.4
		c0-4.3,0-8.4-0.1-12.7c-1.9-74.9-15.2-93.6-44.6-135.1l-2.5-3.4c-3.6-5.1-8-5.8-12.9-2.3c-5.7,4-11.2,26.4-18.8,57.5
		c-5.9,23.9-13.2,53.4-21.7,82.6c-5,17.1-1.2,33.1,2.4,48c1.1,4.5,2,8.9,2.7,12.8l0.2,1.4l0.7,1.3c2.4,4,4.7,9.1,7,15.2
		c2.3,5.9,4.4,12.7,6.4,20.3c0.6,2.6,1.3,5.2,1.9,7.8c0.5,2,0.8,3.9,1.2,5.6c-5.7,14.7-10.1,30.5-13.2,47
		c-3.1,16.9-4.7,34.3-4.7,52.2c0,16.6,1.4,32.8,4,48.3c2.7,15.9,6.9,31.3,12.1,45.9l0.8,2.4l2,1.5c9.1,6.9,18,15.4,26.6,25.3
		c3.9,4.6,7.8,9.4,11.5,14.6h9.8h10.3c-5.9-9.2-12.3-17.6-18.8-25.2c-8.8-10.1-17.9-19-27.3-26.2c-4.5-12.8-8.1-26.5-10.4-40.7
		c-2.5-14.6-3.8-29.8-3.8-45.5c0-17.1,1.5-33.6,4.4-49.3c3-16.1,7.5-31.6,13.2-46.2l0.9-2.3l-0.5-2.5c-0.6-3.2-1.2-6.1-1.8-8.4
		c-0.6-2.8-1.3-5.6-2-8.4c-2.1-8.2-4.4-15.4-6.9-22c-2.4-6.2-4.9-11.6-7.4-16.3c-0.7-4.2-1.8-8.2-2.7-12.3
		c-3-12.8-6.3-26.6-2.6-39.3c8.8-30,16-59.5,22-83.3c4-16.5,7.5-30.2,9.6-38.7c23.6,33.6,34.4,53.2,36.3,117.9
		c0.1,4.5,0.1,8.9,0.1,13.3c0,4.3-0.1,8.7-0.2,13.1l-0.7,18.5l14.5-11.6c12.8-10.3,28.4-6.1,45.2-1.4c11.4,3.2,23.2,6.4,35.7,6.4
		s24.6-3.3,36.1-6.6c13.6-3.9,26.7-7.6,37.8-3.7V166v-9.2C506.4,153.7,492.3,157.7,477.6,161.9z"/>
	<path id="Right_Eye" d="M495.5,303.9c-4.9,4.3-7.8,10.2-7.8,17s3,12.7,7.8,17c4.4,3.9,10.4,6.4,17.1,6.4c2.7,0,5.2-0.4,7.6-1.2
		v-44.5c-2.4-0.7-5-1.1-7.6-1.1C506,297.5,500,300,495.5,303.9z"/>
	<path id="Nose" d="M445.1,449.4c-11.9,0-39.3,23.4-39.3,39.4c0,2.2,0.3,4.3,1,6.4h78.1c0.6-2.1,1-4.2,1-6.5
		C485.9,472.8,457.8,449.4,445.1,449.4z"/>
	<path id="Left_Eye" d="M422.6,294.8c-8.1-45.1-38.6-77.4-68.3-72.1c-29.7,5.3-47.1,46.2-39.1,91.3c7.6,42.4,34.9,73.4,62.7,72.7
		c7.6-15.1,21.6-26.2,38.5-29.6C424.1,340.4,426.7,318.2,422.6,294.8z M396.3,337.9c-4.5,3.9-10.6,6.4-17.1,6.4
		c-6.6,0-12.7-2.5-17.1-6.4c-4.9-4.3-7.8-10.2-7.8-17s3-12.7,7.8-17c4.5-3.9,10.6-6.4,17.1-6.4c6.6,0,12.7,2.5,17.1,6.4
		c4.9,4.4,7.8,10.3,7.8,17C404.2,327.6,401.2,333.6,396.3,337.9z"/>
	<path id="Shadow" class="st2" d="M412,415.9c-3.1,1.1-7.4,0.6-9.4-1.1s-1.1-3.8,2-4.9c10.7-3.6,25.1-6.3,41.2-6.3
		c12.9,0,27,1.8,41,6.3c3.2,1.1,4.2,3.2,2.3,4.9c-2,1.7-6.2,2.1-9.3,1.2c-11.8-3.8-23.3-5.2-34-5.2
		C432.7,410.7,420.8,412.9,412,415.9L412,415.9z"/>
</g>
</svg>
