<?xml version="1.0" encoding="utf-8"?>
<svg viewBox="0 0 500 500" xmlns="http://www.w3.org/2000/svg">
  <defs>
    <pattern id="pattern-0" x="0" y="0" width="20" height="20" patternUnits="userSpaceOnUse" viewBox="0 0 100 100">
      <path d="M 0 0 L 50 0 L 50 100 L 0 100 Z" style="fill: black;"/>
    </pattern>
  </defs>
  <path style="fill: rgb(255, 255, 255); stroke: rgb(0, 0, 0); stroke-miterlimit: 4; stroke-dasharray: none; stroke-width: 24.1239;" d="M 140.612 16.07 C 136.565 10.367 125.853 69.255 108.381 129.061 C 103.577 145.502 110.407 162.089 112.885 176.473 C 117.048 183.779 121.184 194.444 124.691 207.736 C 125.873 212.214 126.903 216.775 127.823 221.339 C 118.109 245.954 112.626 273.846 112.626 303.409 C 112.626 330.642 117.299 356.445 125.623 379.586 C 141.303 391.431 156.518 408.669 169.013 430.093 C 174.86 440.118 179.69 450.381 183.539 460.577 C 203.547 475.159 226.618 483.493 251.189 483.493 C 274.393 483.493 296.256 476.068 315.472 462.963 C 319.453 451.983 324.113 440.618 330.877 430.093 C 344.265 409.265 360.773 389.253 377.633 377.13 C 389.314 358.536 390.837 330.762 389.75 303.409 C 388.621 275.027 384.678 248.146 375.666 224.253 C 376.446 218.449 377.415 212.643 378.618 206.935 C 381.644 192.557 385.537 181.154 389.621 173.676 C 391.233 159.61 396.683 143.363 391.511 127.64 C 370.872 64.898 373.494 118.034 367.485 123.062 C 359.888 129.421 319.716 67.053 321.298 129.061 C 321.471 135.825 321.836 142.432 322.359 148.856 C 301.557 132.637 276.381 152.664 250.36 152.664 C 223.685 152.664 199.605 133.116 178.463 150.095 C 178.74 142.832 178.79 135.327 178.593 127.64 C 177.01 65.631 165.781 51.533 140.612 16.07 Z" id="path2987"/>
  <path id="path3763" d="M 248.613 379.622 C 238.675 379.622 215.913 399.093 215.913 412.414 C 215.913 416.062 217.038 419.515 219.042 422.614 C 222.816 424.2 226.478 426.509 229.486 429.38 C 230.893 430.722 232.055 432.096 232.981 433.462 C 237.797 435.415 243.351 436.53 249.265 436.53 C 254.852 436.53 260.114 435.536 264.738 433.78 C 265.698 432.311 266.929 430.827 268.446 429.38 C 271.669 426.304 275.642 423.875 279.701 422.286 C 281.573 419.274 282.618 415.932 282.618 412.414 C 282.618 399.093 259.202 379.622 248.613 379.622 Z" style="fill: rgb(0, 0, 0); stroke: rgb(0, 0, 0); stroke-miterlimit: 4; stroke-dasharray: none; stroke-width: 24.1239;"/>
  <path style="fill: rgb(0, 0, 0); stroke: rgb(0, 0, 0); stroke-linecap: butt; stroke-linejoin: miter; stroke-miterlimit: 4; stroke-dasharray: none; stroke-width: 24.1239;" d="M 218.799 311.887 C 253.953 253.834 192.034 175.403 161.146 240.701 C 147.314 269.942 179.823 338.489 218.799 311.887 Z" id="path3779"/>
  <path style="fill: rgb(0, 0, 0); stroke: rgb(0, 0, 0); stroke-miterlimit: 4; stroke-width: 18;" d="M 311.951 273.021 C 311.951 278.795 306.666 283.478 300.147 283.478 C 293.629 283.478 288.343 278.795 288.343 273.021 C 288.343 267.245 293.629 262.563 300.147 262.563 C 306.666 262.563 311.951 267.245 311.951 273.021 Z" id="path3785"/>
  <path style="stroke: rgb(0, 0, 0); stroke-miterlimit: 4; fill: rgb(255, 255, 255); stroke-width: 24.1239;" d="M 229.289 269.988 C 229.289 285.489 216.409 298.058 200.518 298.058 C 184.631 298.058 171.749 285.489 171.749 269.988 C 171.749 254.478 184.631 241.912 200.518 241.912 C 216.409 241.912 229.289 254.478 229.289 269.988 Z" id="path-1"/>
</svg>