<?xml version="1.0" encoding="utf-8"?>
<svg viewBox="0 0 500 500" xmlns="http://www.w3.org/2000/svg">
  <defs>
    <pattern id="pattern-0" x="0" y="0" width="20" height="20" patternUnits="userSpaceOnUse" viewBox="0 0 100 100">
      <path d="M 0 0 L 50 0 L 50 100 L 0 100 Z" style="fill: black;"/>
    </pattern>
  </defs>
  <ellipse cx="250.5" cy="250.5" rx="237.5" ry="237.5" style="stroke-linecap: round; stroke-linejoin: round; fill: none; stroke: rgb(0, 0, 0); stroke-width: 20;"/>
  <path style="fill: rgb(255, 255, 255); stroke: rgb(0, 0, 0); stroke-miterlimit: 4; stroke-dasharray: none; stroke-width: 24.1239;" d="M 158.667 87.152 C 155.235 82.316 146.152 132.249 131.337 182.96 C 127.264 196.901 133.055 210.965 135.156 223.162 C 138.686 229.357 142.193 238.4 145.167 249.671 C 146.169 253.468 147.043 257.335 147.823 261.205 C 139.586 282.077 134.937 305.727 134.937 330.795 C 134.937 353.886 138.899 375.765 145.957 395.387 C 159.253 405.431 172.154 420.048 182.749 438.214 C 187.707 446.714 191.802 455.416 195.066 464.062 C 212.031 476.426 231.594 483.493 252.428 483.493 C 272.104 483.493 290.642 477.197 306.936 466.085 C 310.311 456.775 314.263 447.138 319.998 438.214 C 331.35 420.553 345.348 403.584 359.644 393.305 C 369.548 377.538 370.84 353.988 369.918 330.795 C 368.961 306.729 365.617 283.936 357.976 263.676 C 358.637 258.755 359.459 253.832 360.479 248.992 C 363.045 236.8 366.346 227.131 369.809 220.79 C 371.176 208.863 375.797 195.087 371.411 181.755 C 353.911 128.554 356.134 173.61 351.039 177.873 C 344.597 183.265 310.534 130.382 311.876 182.96 C 312.022 188.695 312.332 194.298 312.775 199.745 C 295.137 185.992 273.789 202.974 251.725 202.974 C 229.107 202.974 208.689 186.398 190.762 200.795 C 190.997 194.637 191.039 188.273 190.872 181.755 C 189.53 129.176 180.008 117.222 158.667 87.152 Z" id="path2987"/>
  <path id="path3763" d="M 250.244 395.418 C 241.817 395.418 222.517 411.928 222.517 423.223 C 222.517 426.316 223.471 429.244 225.17 431.872 C 228.37 433.217 231.475 435.175 234.026 437.609 C 235.219 438.747 236.204 439.912 236.989 441.07 C 241.073 442.726 245.782 443.672 250.797 443.672 C 255.534 443.672 259.996 442.829 263.917 441.34 C 264.731 440.094 265.775 438.836 267.061 437.609 C 269.794 435.001 273.163 432.941 276.604 431.594 C 278.192 429.04 279.078 426.206 279.078 423.223 C 279.078 411.928 259.223 395.418 250.244 395.418 Z" style="fill: rgb(0, 0, 0); stroke: rgb(0, 0, 0); stroke-miterlimit: 4; stroke-dasharray: none; stroke-width: 24.1239;"/>
  <path style="fill: rgb(0, 0, 0); stroke: rgb(0, 0, 0); stroke-linecap: butt; stroke-linejoin: miter; stroke-miterlimit: 4; stroke-dasharray: none; stroke-width: 24.1239;" d="M 224.964 337.983 C 254.772 288.759 202.269 222.255 176.078 277.623 C 164.35 302.417 191.915 360.54 224.964 337.983 Z" id="path3779"/>
  <path style="fill: rgb(0, 0, 0); stroke: rgb(0, 0, 0); stroke-miterlimit: 4; stroke-width: 18;" d="M 303.95 305.028 C 303.95 309.924 299.469 313.895 293.941 313.895 C 288.414 313.895 283.932 309.924 283.932 305.028 C 283.932 300.13 288.414 296.16 293.941 296.16 C 299.469 296.16 303.95 300.13 303.95 305.028 Z" id="path3785"/>
  <path style="stroke: rgb(0, 0, 0); stroke-miterlimit: 4; fill: rgb(255, 255, 255); stroke-width: 24.1239;" d="M 233.859 302.456 C 233.859 315.6 222.937 326.257 209.463 326.257 C 195.992 326.257 185.069 315.6 185.069 302.456 C 185.069 289.305 195.992 278.65 209.463 278.65 C 222.937 278.65 233.859 289.305 233.859 302.456 Z" id="path-1"/>
</svg>