<?xml version="1.0" encoding="utf-8"?>
<svg aria-labelledby="simpleicons-bluesky-icon" role="img" viewBox="0 0 24 24" xmlns="http://www.w3.org/2000/svg">
  <title id="simpleicons-bluesky-icon">Bluesky icon</title>
  <path d="M12 10.8c-1.087-2.114-4.046-6.053-6.798-7.995C2.566.944 1.561 1.266.902 1.565C.139 1.908 0 3.08 0 3.768c0 .69.378 5.65.624 6.479c.815 2.736 3.713 3.66 6.383 3.364q.204-.03.415-.056q-.207.033-.415.056c-3.912.58-7.387 2.005-2.83 7.078c5.013 5.19 6.87-1.113 7.823-4.308c.953 3.195 2.05 9.271 7.733 4.308c4.267-4.308 1.172-6.498-2.74-7.078a9 9 0 0 1-.415-.056q.21.026.415.056c2.67.297 5.568-.628 6.383-3.364c.246-.828.624-5.79.624-6.478c0-.69-.139-1.861-.902-2.206c-.659-.298-1.664-.62-4.3 1.24C16.046 4.748 13.087 8.687 12 10.8" style="fill: rgba(255, 255, 255, 0.5)"/>
 </svg>