<?xml version="1.0" encoding="UTF-8" standalone="no"?>
<!DOCTYPE svg PUBLIC "-//W3C//DTD SVG 1.1//EN" "http://www.w3.org/Graphics/SVG/1.1/DTD/svg11.dtd">
<svg width="100%" height="100%" viewBox="0 0 2481 2481" version="1.1" xmlns="http://www.w3.org/2000/svg" xmlns:xlink="http://www.w3.org/1999/xlink" xml:space="preserve" xmlns:serif="http://www.serif.com/" style="fill-rule:evenodd;clip-rule:evenodd;stroke-linejoin:round;stroke-miterlimit:2;">
    <g transform="matrix(15.9072,0,0,15.9072,0.00409983,371.626)">
        <path d="M152.483,17.1C150.665,10.382 145.401,5.118 138.683,3.3C126.583,0 77.883,0 77.883,0C77.883,0 29.183,0.1 17.083,3.4C10.365,5.218 5.101,10.482 3.283,17.2C-0.377,38.7 -1.797,71.46 3.383,92.1C5.201,98.818 10.465,104.082 17.183,105.9C29.283,109.2 77.983,109.2 77.983,109.2C77.983,109.2 126.683,109.2 138.783,105.9C145.501,104.082 150.765,98.818 152.583,92.1C156.443,70.57 157.633,37.83 152.483,17.1ZM105.52,54.992L57.492,78.01L57.484,31.99L105.52,54.992Z" style="fill:white;fill-opacity:0.5;fill-rule:nonzero;"/>
    </g>
</svg>
