<?xml version="1.0" encoding="utf-8"?>
<svg viewBox="0 0 500 500" style="shape-rendering: geometricprecision;" xmlns="http://www.w3.org/2000/svg">
  <g id="Layer_x0020_1" transform="matrix(0.34025, 0, 0, 0.34025, 104.675499, 4.556355)" style="">
    <g id="_2380011775984" style="shape-rendering: geometricprecision;">
      <rect x="-307.643" y="-13.391" width="1469.508" height="1469.508" style="fill: rgb(255, 210, 7); stroke-width: 0px; stroke-linejoin: round;" rx="92.687" ry="92.687"/>
      <path d="M 1162.365 -13.891 L 1162.365 1456.617 L -308.143 1456.617 L -308.143 -13.891 Z M -307.143 1455.617 L 1161.365 1455.617 L 1161.365 -12.891 L -307.143 -12.891 Z" style="fill: none;"/>
      <g transform="matrix(1.186829, 0, 0, 1.186829, 412.840485, 9.962959)" style="">
        <path class="fil0" d="M 106.58 5.52 C 118.95 -3.26 129.69 -1.67 138.75 11.1 L 144.87 19.71 C 217.9 122.47 250.71 168.64 255.45 354.23 C 255.72 364.69 255.83 375.14 255.8 385.56 C 292.87 372.72 330.53 383.07 370.31 394.01 C 395.47 400.93 421.62 408.12 447.8 408.12 C 473.29 408.12 499.85 400.53 525.6 393.18 C 564.66 382.02 602.14 371.32 638.5 382.28 C 638.17 375.04 637.9 367.44 637.69 359.45 C 635.72 282.17 656.58 256.54 686.67 255.77 C 713.46 255.09 741.66 279.26 766.09 300.19 C 778.31 310.66 775.92 330.49 782.38 325.08 C 783.06 324.51 784 313.69 786.36 301.4 C 791.12 276.67 796.03 251.13 815.06 244.87 C 835.22 238.24 858.33 260.83 887.09 348.27 C 900.29 388.41 893.51 427.11 887.2 463.08 C 885.31 473.89 883.46 484.42 882.37 493.89 L 881.92 497.84 L 879.92 501.51 C 874.44 511.55 868.94 524.72 863.65 540.69 C 858.39 556.58 853.55 574.66 849.35 594.59 C 847.65 602.65 846.09 610.94 844.66 619.39 C 843.49 626.26 842.46 632.94 841.54 639.42 C 854.47 674.77 863.85 712.11 870.45 750.94 C 877.28 791.09 881.12 833.02 882.84 876.16 C 884.5 917.86 884.15 959.99 878.9 999.04 C 873.47 1039.48 862.76 1076.73 843.64 1107.15 L 841.5 1110.56 L 838.16 1112.96 C 815.72 1129.09 793.35 1150.39 771.91 1174.67 C 747.92 1201.85 725.09 1232.86 704.64 1264.68 C 695.21 1279.36 687.19 1294.72 680.13 1310.3 C 672.83 1326.39 666.62 1342.45 660.92 1358.16 L 658.61 1364.53 L 653.06 1368.32 C 622.51 1389.16 589.65 1405.46 555.04 1416.52 C 521.31 1427.29 486.22 1433.01 450.27 1433.01 C 412.1 1433.01 375.01 1426.62 339.6 1414.62 C 303.39 1402.36 268.97 1384.14 236.99 1360.83 L 231.88 1357.11 L 229.7 1351.33 C 224.21 1336.79 217.88 1321.93 210.69 1306.83 C 203.7 1292.17 196.15 1277.81 188.02 1263.87 C 170.45 1233.74 151.02 1206.53 130.48 1182.62 C 109.42 1158.1 87.17 1137.09 64.59 1120.03 L 59.69 1116.33 L 57.54 1110.37 C 44.51 1074.15 34.42 1036.04 27.68 996.54 C 21.09 957.93 17.61 917.93 17.61 877 C 17.61 832.69 21.7 789.36 29.43 747.63 C 36.99 706.8 48 667.83 62.01 631.26 C 61.13 627.12 60.13 622.56 58.97 617.52 C 57.47 610.94 55.87 604.45 54.19 598.06 C 49.26 579.38 43.92 562.57 38.37 547.86 C 32.73 532.92 26.92 520.27 21.16 510.16 L 19.32 506.93 L 18.71 503.37 C 17.06 493.77 14.47 482.92 11.81 471.77 C 3.05 434.99 -6.41 395.29 5.9 353.16 C 27.05 280.77 45.08 207.79 59.7 148.61 C 78.92 70.8 92.59 15.49 106.59 5.56 Z M 124.19 62.84 C 118.77 83.86 110.4 117.71 100.31 158.56 C 85.72 217.61 67.73 290.43 46.02 364.75 C 36.87 396.08 45.03 430.33 52.59 462.06 C 55.04 472.35 57.44 482.41 59.35 492.76 C 65.56 504.12 71.68 517.64 77.52 533.08 C 83.57 549.1 89.35 567.29 94.65 587.37 C 96.48 594.29 98.17 601.22 99.76 608.14 C 101.11 614.04 102.6 621.09 104.2 629.02 L 105.43 635.12 L 103.22 640.73 C 89.01 676.74 77.96 715.08 70.54 755.12 C 63.35 793.96 59.54 834.74 59.54 876.95 C 59.54 915.72 62.79 953.36 68.95 989.45 C 74.97 1024.76 83.69 1058.54 94.78 1090.4 C 117.9 1108.44 140.64 1130.24 162.25 1155.39 C 184.39 1181.16 205.32 1210.47 224.21 1242.86 C 233.2 1258.27 241.3 1273.61 248.52 1288.77 C 255.05 1302.48 261.07 1316.47 266.58 1330.65 C 293.58 1349.65 322.55 1364.63 353.03 1374.95 C 384.03 1385.45 416.61 1391.05 450.27 1391.05 C 482.2 1391.05 513.06 1386.07 542.43 1376.69 C 570.86 1367.61 598.18 1354.34 623.99 1337.41 C 629.46 1322.62 635.34 1307.71 641.98 1293.08 C 649.82 1275.8 658.78 1258.64 669.44 1242.05 C 690.82 1208.8 714.94 1176.07 740.64 1146.97 C 762.93 1121.72 786.4 1099.26 810.27 1081.59 C 824.64 1057.28 832.99 1026.88 837.48 993.44 C 842.36 957.1 842.66 917.34 841.09 877.76 C 839.45 836.57 835.76 796.4 829.19 757.79 C 822.71 719.7 813.44 683.29 800.55 649.13 L 798.7 644.22 L 799.41 638.98 C 800.64 629.81 801.97 620.95 803.41 612.49 C 804.89 603.77 806.56 594.95 808.43 586.05 C 813.07 564.03 818.29 544.43 823.87 527.56 C 829.24 511.32 835.11 497.1 841.26 485.24 C 842.51 475.41 844.21 465.74 845.94 455.85 C 851.38 424.8 857.24 391.4 847.3 361.19 C 828.54 304.17 831.12 283.63 828 284.65 C 823.52 286.13 829.94 296.42 827.47 309.24 C 823.67 328.98 819.98 348.17 809.24 357.16 C 788.55 374.48 765.58 354.8 738.91 331.94 C 720.11 315.83 698.41 297.23 687.66 297.51 C 681.98 297.66 678.29 312.63 679.46 358.45 C 679.69 367.61 680.09 377.22 680.62 387.23 C 681.09 396.05 681.76 405.71 682.61 416.12 L 686.47 463.53 L 648.87 434.22 C 618.17 410.29 578.75 421.55 537.07 433.46 C 508.5 441.62 479.02 450.04 447.8 450.04 C 416.61 450.04 387.41 442.01 359.34 434.29 C 317.74 422.85 279.06 412.22 247.29 437.73 L 211.56 466.42 L 213.3 420.69 C 213.72 409.75 213.96 398.92 214.02 388.23 C 214.08 377.49 213.97 366.47 213.68 355.2 C 209.57 194.29 182.78 146.01 124.18 62.83 Z" style="fill: rgb(43, 42, 41); fill-rule: nonzero;"/>
        <path class="fil0" d="M 106.58 5.52 C 118.95 -3.26 129.69 -1.67 138.75 11.1 L 144.87 19.71 C 217.9 122.47 250.71 168.64 255.45 354.23 C 255.72 364.69 255.83 375.14 255.8 385.56 C 292.87 372.72 330.53 383.07 370.31 394.01 C 395.47 400.93 421.62 408.12 447.8 408.12 C 473.29 408.12 499.85 400.53 525.6 393.18 C 564.66 382.02 602.14 371.32 638.5 382.28 C 638.17 375.04 637.9 367.44 637.69 359.45 C 635.72 282.17 656.58 256.54 686.67 255.77 C 713.46 255.09 741.66 279.26 766.09 300.19 C 778.31 310.66 775.92 330.49 782.38 325.08 C 783.06 324.51 784 313.69 786.36 301.4 C 791.12 276.67 796.03 251.13 815.06 244.87 C 835.22 238.24 858.33 260.83 887.09 348.27 C 900.29 388.41 893.51 427.11 887.2 463.08 C 885.31 473.89 883.46 484.42 882.37 493.89 L 881.92 497.84 L 879.92 501.51 C 874.44 511.55 868.94 524.72 863.65 540.69 C 858.39 556.58 853.55 574.66 849.35 594.59 C 847.65 602.65 846.09 610.94 844.66 619.39 C 843.49 626.26 842.46 632.94 841.54 639.42 C 854.47 674.77 863.85 712.11 870.45 750.94 C 877.28 791.09 881.12 833.02 882.84 876.16 C 884.5 917.86 884.15 959.99 878.9 999.04 C 873.47 1039.48 862.76 1076.73 843.64 1107.15 L 841.5 1110.56 L 838.16 1112.96 C 815.72 1129.09 793.35 1150.39 771.91 1174.67 C 747.92 1201.85 725.09 1232.86 704.64 1264.68 C 695.21 1279.36 687.19 1294.72 680.13 1310.3 C 672.83 1326.39 666.62 1342.45 660.92 1358.16 L 658.61 1364.53 L 653.06 1368.32 C 622.51 1389.16 589.65 1405.46 555.04 1416.52 C 521.31 1427.29 486.22 1433.01 450.27 1433.01 C 412.1 1433.01 375.01 1426.62 339.6 1414.62 C 303.39 1402.36 268.97 1384.14 236.99 1360.83 L 231.88 1357.11 L 229.7 1351.33 C 224.21 1336.79 217.88 1321.93 210.69 1306.83 C 203.7 1292.17 196.15 1277.81 188.02 1263.87 C 170.45 1233.74 151.02 1206.53 130.48 1182.62 C 109.42 1158.1 87.17 1137.09 64.59 1120.03 L 59.69 1116.33 L 57.54 1110.37 C 44.51 1074.15 34.42 1036.04 27.68 996.54 C 21.09 957.93 17.61 917.93 17.61 877 C 17.61 832.69 21.7 789.36 29.43 747.63 C 36.99 706.8 48 667.83 62.01 631.26 C 61.13 627.12 60.13 622.56 58.97 617.52 C 57.47 610.94 55.87 604.45 54.19 598.06 C 49.26 579.38 43.92 562.57 38.37 547.86 C 32.73 532.92 26.92 520.27 21.16 510.16 L 19.32 506.93 L 18.71 503.37 C 17.06 493.77 14.47 482.92 11.81 471.77 C 3.05 434.99 -6.41 395.29 5.9 353.16 C 27.05 280.77 45.08 207.79 59.7 148.61 C 78.92 70.8 92.59 15.49 106.59 5.56 Z M 124.19 62.84 C 118.77 83.86 110.4 117.71 100.31 158.56 C 85.72 217.61 67.73 290.43 46.02 364.75 C 36.87 396.08 45.03 430.33 52.59 462.06 C 55.04 472.35 57.44 482.41 59.35 492.76 C 65.56 504.12 71.68 517.64 77.52 533.08 C 83.57 549.1 89.35 567.29 94.65 587.37 C 96.48 594.29 98.17 601.22 99.76 608.14 C 101.11 614.04 102.6 621.09 104.2 629.02 L 105.43 635.12 L 103.22 640.73 C 89.01 676.74 77.96 715.08 70.54 755.12 C 63.35 793.96 59.54 834.74 59.54 876.95 C 59.54 915.72 62.79 953.36 68.95 989.45 C 74.97 1024.76 83.69 1058.54 94.78 1090.4 C 117.9 1108.44 140.64 1130.24 162.25 1155.39 C 184.39 1181.16 205.32 1210.47 224.21 1242.86 C 233.2 1258.27 241.3 1273.61 248.52 1288.77 C 255.05 1302.48 261.07 1316.47 266.58 1330.65 C 293.58 1349.65 322.55 1364.63 353.03 1374.95 C 384.03 1385.45 416.61 1391.05 450.27 1391.05 C 482.2 1391.05 513.06 1386.07 542.43 1376.69 C 570.86 1367.61 598.18 1354.34 623.99 1337.41 C 629.46 1322.62 635.34 1307.71 641.98 1293.08 C 649.82 1275.8 658.78 1258.64 669.44 1242.05 C 690.82 1208.8 714.94 1176.07 740.64 1146.97 C 762.93 1121.72 786.4 1099.26 810.27 1081.59 C 824.64 1057.28 832.99 1026.88 837.48 993.44 C 842.36 957.1 842.66 917.34 841.09 877.76 C 839.45 836.57 835.76 796.4 829.19 757.79 C 822.71 719.7 813.44 683.29 800.55 649.13 L 798.7 644.22 L 799.41 638.98 C 800.64 629.81 801.97 620.95 803.41 612.49 C 804.89 603.77 806.56 594.95 808.43 586.05 C 813.07 564.03 818.29 544.43 823.87 527.56 C 829.24 511.32 835.11 497.1 841.26 485.24 C 842.51 475.41 844.21 465.74 845.94 455.85 C 851.38 424.8 857.24 391.4 847.3 361.19 C 828.54 304.17 831.12 283.63 828 284.65 C 823.52 286.13 829.94 296.42 827.47 309.24 C 823.67 328.98 819.98 348.17 809.24 357.16 C 788.55 374.48 765.58 354.8 738.91 331.94 C 720.11 315.83 698.41 297.23 687.66 297.51 C 681.98 297.66 678.29 312.63 679.46 358.45 C 679.69 367.61 680.09 377.22 680.62 387.23 C 681.09 396.05 681.76 405.71 682.61 416.12 L 686.47 463.53 L 648.87 434.22 C 618.17 410.29 578.75 421.55 537.07 433.46 C 508.5 441.62 479.02 450.04 447.8 450.04 C 416.61 450.04 387.41 442.01 359.34 434.29 C 317.74 422.85 279.06 412.22 247.29 437.73 L 211.56 466.42 L 213.3 420.69 C 213.72 409.75 213.96 398.92 214.02 388.23 C 214.08 377.49 213.97 366.47 213.68 355.2 C 209.57 194.29 182.78 146.01 124.18 62.83 Z" style="fill: rgb(43, 42, 41); fill-rule: nonzero;"/>
        <path id="path2987" class="fil1" d="M 121.72 23.22 C 109.69 6.27 77.87 181.24 25.96 358.94 C 11.69 407.79 31.98 457.07 39.34 499.81 C 51.71 521.52 64 553.21 74.42 592.7 C 77.93 606.01 80.99 619.56 83.72 633.12 C 54.86 706.25 38.57 789.13 38.57 876.96 C 38.57 957.87 52.45 1034.54 77.19 1103.3 C 123.78 1138.49 168.98 1189.71 206.11 1253.37 C 223.48 1283.15 237.83 1313.65 249.27 1343.94 C 308.72 1387.27 377.27 1412.03 450.27 1412.03 C 519.21 1412.03 584.17 1389.97 641.27 1351.03 C 653.1 1318.41 666.94 1284.64 687.04 1253.37 C 726.82 1191.49 775.86 1132.03 825.96 1096.01 C 860.67 1040.76 865.19 958.24 861.96 876.97 C 858.61 792.64 846.89 712.77 820.11 641.78 C 822.43 624.54 825.31 607.28 828.88 590.32 C 837.87 547.6 849.44 513.72 861.57 491.5 C 866.36 449.71 882.55 401.43 867.19 354.72 C 805.87 168.3 813.66 326.18 795.8 341.12 C 773.23 360.01 653.87 174.71 658.57 358.94 C 659.08 379.04 660.17 398.67 661.72 417.75 C 599.91 369.56 525.11 429.07 447.8 429.07 C 368.54 429.07 297 370.99 234.18 421.44 C 235 399.86 235.15 377.56 234.57 354.72 C 229.87 170.48 196.5 128.59 121.72 23.22 Z" style="fill: rgb(255, 255, 255);"/>
        <path class="fil2" d="M 106.58 5.52 C 118.95 -3.26 129.69 -1.67 138.75 11.1 L 144.87 19.71 C 217.9 122.47 250.71 168.64 255.45 354.23 C 255.72 364.69 255.83 375.14 255.8 385.56 C 292.87 372.72 330.53 383.07 370.31 394.01 C 395.47 400.93 421.62 408.12 447.8 408.12 C 473.29 408.12 499.85 400.53 525.6 393.18 C 564.66 382.02 602.14 371.32 638.5 382.28 C 638.17 375.04 637.9 367.44 637.69 359.45 C 635.72 282.17 656.58 256.54 686.67 255.77 C 713.46 255.09 741.66 279.26 766.09 300.19 C 778.31 310.66 775.92 330.49 782.38 325.08 C 783.06 324.51 784 313.69 786.36 301.4 C 791.12 276.67 796.03 251.13 815.06 244.87 C 835.22 238.24 858.33 260.83 887.09 348.27 C 900.29 388.41 893.51 427.11 887.2 463.08 C 885.31 473.89 883.46 484.42 882.37 493.89 L 881.92 497.84 L 879.92 501.51 C 874.44 511.55 868.94 524.72 863.65 540.69 C 858.39 556.58 853.55 574.66 849.35 594.59 C 847.65 602.65 846.09 610.94 844.66 619.39 C 843.49 626.26 842.46 632.94 841.54 639.42 C 854.47 674.77 863.85 712.11 870.45 750.94 C 877.28 791.09 881.12 833.02 882.84 876.16 C 884.5 917.86 884.15 959.99 878.9 999.04 C 873.47 1039.48 862.76 1076.73 843.64 1107.15 L 841.5 1110.56 L 838.16 1112.96 C 815.72 1129.09 793.35 1150.39 771.91 1174.67 C 747.92 1201.85 725.09 1232.86 704.64 1264.68 C 695.21 1279.36 687.19 1294.72 680.13 1310.3 C 672.83 1326.39 666.62 1342.45 660.92 1358.16 L 658.61 1364.53 L 653.06 1368.32 C 622.51 1389.16 589.65 1405.46 555.04 1416.52 C 521.31 1427.29 486.22 1433.01 450.27 1433.01 C 412.1 1433.01 375.01 1426.62 339.6 1414.62 C 303.39 1402.36 268.97 1384.14 236.99 1360.83 L 231.88 1357.11 L 229.7 1351.33 C 224.21 1336.79 217.88 1321.93 210.69 1306.83 C 203.7 1292.17 196.15 1277.81 188.02 1263.87 C 170.45 1233.74 151.02 1206.53 130.48 1182.62 C 109.42 1158.1 87.17 1137.09 64.59 1120.03 L 59.69 1116.33 L 57.54 1110.37 C 44.51 1074.15 34.42 1036.04 27.68 996.54 C 21.09 957.93 17.61 917.93 17.61 877 C 17.61 832.69 21.7 789.36 29.43 747.63 C 36.99 706.8 48 667.83 62.01 631.26 C 61.13 627.12 60.13 622.56 58.97 617.52 C 57.47 610.94 55.87 604.45 54.19 598.06 C 49.26 579.38 43.92 562.57 38.37 547.86 C 32.73 532.92 26.92 520.27 21.16 510.16 L 19.32 506.93 L 18.71 503.37 C 17.06 493.77 14.47 482.92 11.81 471.77 C 3.05 434.99 -6.41 395.29 5.9 353.16 C 27.05 280.77 45.08 207.79 59.7 148.61 C 78.92 70.8 92.59 15.49 106.59 5.56 Z M 124.19 62.84 C 118.77 83.86 110.4 117.71 100.31 158.56 C 85.72 217.61 67.73 290.43 46.02 364.75 C 36.87 396.08 45.03 430.33 52.59 462.06 C 55.04 472.35 57.44 482.41 59.35 492.76 C 65.56 504.12 71.68 517.64 77.52 533.08 C 83.57 549.1 89.35 567.29 94.65 587.37 C 96.48 594.29 98.17 601.22 99.76 608.14 C 101.11 614.04 102.6 621.09 104.2 629.02 L 105.43 635.12 L 103.22 640.73 C 89.01 676.74 77.96 715.08 70.54 755.12 C 63.35 793.96 59.54 834.74 59.54 876.95 C 59.54 915.72 62.79 953.36 68.95 989.45 C 74.97 1024.76 83.69 1058.54 94.78 1090.4 C 117.9 1108.44 140.64 1130.24 162.25 1155.39 C 184.39 1181.16 205.32 1210.47 224.21 1242.86 C 233.2 1258.27 241.3 1273.61 248.52 1288.77 C 255.05 1302.48 261.07 1316.47 266.58 1330.65 C 293.58 1349.65 322.55 1364.63 353.03 1374.95 C 384.03 1385.45 416.61 1391.05 450.27 1391.05 C 482.2 1391.05 513.06 1386.07 542.43 1376.69 C 570.86 1367.61 598.18 1354.34 623.99 1337.41 C 629.46 1322.62 635.34 1307.71 641.98 1293.08 C 649.82 1275.8 658.78 1258.64 669.44 1242.05 C 690.82 1208.8 714.94 1176.07 740.64 1146.97 C 762.93 1121.72 786.4 1099.26 810.27 1081.59 C 824.64 1057.28 832.99 1026.88 837.48 993.44 C 842.36 957.1 842.66 917.34 841.09 877.76 C 839.45 836.57 835.76 796.4 829.19 757.79 C 822.71 719.7 813.44 683.29 800.55 649.13 L 798.7 644.22 L 799.41 638.98 C 800.64 629.81 801.97 620.95 803.41 612.49 C 804.89 603.77 806.56 594.95 808.43 586.05 C 813.07 564.03 818.29 544.43 823.87 527.56 C 829.24 511.32 835.11 497.1 841.26 485.24 C 842.51 475.41 844.21 465.74 845.94 455.85 C 851.38 424.8 857.24 391.4 847.3 361.19 C 828.54 304.17 831.12 283.63 828 284.65 C 823.52 286.13 829.94 296.42 827.47 309.24 C 823.67 328.98 819.98 348.17 809.24 357.16 C 788.55 374.48 765.58 354.8 738.91 331.94 C 720.11 315.83 698.41 297.23 687.66 297.51 C 681.98 297.66 678.29 312.63 679.46 358.45 C 679.69 367.61 680.09 377.22 680.62 387.23 C 681.09 396.05 681.76 405.71 682.61 416.12 L 686.47 463.53 L 648.87 434.22 C 618.17 410.29 578.75 421.55 537.07 433.46 C 508.5 441.62 479.02 450.04 447.8 450.04 C 416.61 450.04 387.41 442.01 359.34 434.29 C 317.74 422.85 279.06 412.22 247.29 437.73 L 211.56 466.42 L 213.3 420.69 C 213.72 409.75 213.96 398.92 214.02 388.23 C 214.08 377.49 213.97 366.47 213.68 355.2 C 209.57 194.29 182.78 146.01 124.18 62.83 Z" style="fill-rule: nonzero;"/>
        <path id="path2987_0" class="fil1" d="M 121.72 23.22 C 109.69 6.27 77.87 181.24 25.96 358.94 C 11.69 407.79 31.98 457.07 39.34 499.81 C 51.71 521.52 64 553.21 74.42 592.7 C 77.93 606.01 80.99 619.56 83.72 633.12 C 54.86 706.25 38.57 789.13 38.57 876.96 C 38.57 957.87 52.45 1034.54 77.19 1103.3 C 123.78 1138.49 168.98 1189.71 206.11 1253.37 C 223.48 1283.15 237.83 1313.65 249.27 1343.94 C 308.72 1387.27 377.27 1412.03 450.27 1412.03 C 519.21 1412.03 584.17 1389.97 641.27 1351.03 C 653.1 1318.41 666.94 1284.64 687.04 1253.37 C 726.82 1191.49 775.86 1132.03 825.96 1096.01 C 860.67 1040.76 865.19 958.24 861.96 876.97 C 858.61 792.64 846.89 712.77 820.11 641.78 C 822.43 624.54 825.31 607.28 828.88 590.32 C 837.87 547.6 849.44 513.72 861.57 491.5 C 866.36 449.71 882.55 401.43 867.19 354.72 C 805.87 168.3 813.66 326.18 795.8 341.12 C 773.23 360.01 653.87 174.71 658.57 358.94 C 659.08 379.04 660.17 398.67 661.72 417.75 C 599.91 369.56 525.11 429.07 447.8 429.07 C 368.54 429.07 297 370.99 234.18 421.44 C 235 399.86 235.15 377.56 234.57 354.72 C 229.87 170.48 196.5 128.59 121.72 23.22 Z" style="fill: rgb(255, 255, 255);"/>
        <path class="fil3" d="M 220.67 543.45 C 147.31 556.54 104.01 657.73 123.94 769.46 C 142.64 874.28 210.36 951.14 279.23 949.45 C 298.08 912.16 332.79 884.61 374.32 876.33 C 393.28 834.9 399.91 779.9 389.59 722.07 C 369.65 610.34 294.02 530.37 220.67 543.46 Z"/>
        <path class="fil2" d="M 220.71 543.69 C 184.12 550.22 155.02 578.73 137.55 619.56 C 120.06 660.42 114.23 713.6 124.19 769.42 C 133.49 821.53 154.9 866.72 182.55 898.76 C 210.41 931.06 244.6 950 279.08 949.2 C 288.6 930.41 302.15 914.09 318.57 901.46 C 334.7 889.06 353.59 880.22 374.15 876.1 C 383.77 855.04 390.21 830.47 392.84 803.81 C 395.38 778.1 394.4 750.44 389.35 722.09 C 379.39 666.27 355.52 618.39 324.98 586.1 C 294.47 553.84 257.3 537.15 220.71 543.68 Z M 137.09 619.36 C 154.63 578.39 183.86 549.76 220.62 543.2 C 257.38 536.64 294.71 553.39 325.34 585.77 C 355.94 618.13 379.86 666.1 389.83 722.01 C 394.89 750.39 395.88 778.1 393.33 803.86 C 390.68 830.62 384.21 855.28 374.54 876.42 L 374.49 876.54 L 374.37 876.57 C 353.83 880.67 334.97 889.48 318.87 901.86 C 302.47 914.47 288.95 930.78 279.45 949.56 L 279.38 949.69 L 279.23 949.69 C 244.55 950.54 210.16 931.53 182.17 899.08 C 154.46 866.97 133 821.7 123.69 769.5 C 113.71 713.58 119.56 660.3 137.08 619.36 Z" style="fill-rule: nonzero;"/>
        <path id="path3785" class="fil4" d="M 317.31 786.67 C 317.31 803.82 301.61 817.74 282.24 817.74 C 262.87 817.74 247.17 803.82 247.17 786.67 C 247.17 769.51 262.87 755.6 282.24 755.6 C 301.61 755.6 317.31 769.51 317.31 786.67 Z" style="fill: rgb(254, 254, 254);"/>
        <path class="fil5" d="M 344.05 786.67 C 344.05 803.18 336.65 817.99 324.69 828.59 C 313.61 838.41 298.58 844.48 282.24 844.48 C 265.9 844.48 250.87 838.41 239.79 828.59 C 227.83 817.99 220.43 803.18 220.43 786.67 C 220.43 770.16 227.83 755.34 239.79 744.75 C 250.87 734.93 265.9 728.86 282.24 728.86 C 298.58 728.86 313.61 734.93 324.69 744.75 C 336.65 755.35 344.05 770.16 344.05 786.67 Z M 289.38 788.69 C 290.11 788.04 290.57 787.32 290.57 786.67 C 290.57 786.02 290.12 785.3 289.39 784.65 C 287.78 783.22 285.27 782.34 282.24 782.34 C 279.22 782.34 276.7 783.22 275.09 784.65 C 274.36 785.3 273.91 786.02 273.91 786.67 C 273.91 787.31 274.36 788.04 275.1 788.69 C 276.71 790.12 279.22 791 282.24 791 C 285.26 791 287.77 790.12 289.38 788.69 Z" style="fill: rgb(254, 254, 254); fill-rule: nonzero;"/>
        <path id="path3785_1" class="fil4" d="M 317.31 786.67 C 317.31 803.82 301.61 817.74 282.24 817.74 C 262.87 817.74 247.17 803.82 247.17 786.67 C 247.17 769.51 262.87 755.6 282.24 755.6 C 301.61 755.6 317.31 769.51 317.31 786.67 Z" style="fill: rgb(254, 254, 254);"/>
        <path class="fil5" d="M 317.56 786.67 C 317.56 795.32 313.6 803.15 307.2 808.82 C 300.81 814.48 291.98 817.98 282.24 817.98 C 272.5 817.98 263.67 814.48 257.28 808.82 C 250.88 803.15 246.92 795.32 246.92 786.67 C 246.92 778.02 250.88 770.18 257.28 764.51 C 263.67 758.85 272.5 755.35 282.24 755.35 C 291.99 755.35 300.81 758.85 307.2 764.51 C 313.6 770.18 317.56 778.01 317.56 786.67 Z M 306.87 808.45 C 313.17 802.87 317.06 795.17 317.06 786.67 C 317.06 778.16 313.17 770.46 306.87 764.88 C 300.57 759.3 291.86 755.84 282.23 755.84 C 272.61 755.84 263.9 759.29 257.59 764.88 C 251.29 770.46 247.4 778.16 247.4 786.67 C 247.4 795.17 251.29 802.88 257.59 808.45 C 263.89 814.03 272.6 817.49 282.22 817.49 C 291.84 817.49 300.55 814.04 306.85 808.45 Z" style="fill: rgb(254, 254, 254); fill-rule: nonzero;"/>
        <path id="path3785_2" class="fil4" d="M 317.31 786.67 C 317.31 803.82 301.61 817.74 282.24 817.74 C 262.87 817.74 247.17 803.82 247.17 786.67 C 247.17 769.51 262.87 755.6 282.24 755.6 C 301.61 755.6 317.31 769.51 317.31 786.67 Z" style="fill: rgb(254, 254, 254);"/>
        <path class="fil5" d="M 344.05 786.67 C 344.05 803.18 336.65 817.99 324.69 828.59 C 313.61 838.41 298.58 844.48 282.24 844.48 C 265.9 844.48 250.87 838.41 239.79 828.59 C 227.83 817.99 220.43 803.18 220.43 786.67 C 220.43 770.16 227.83 755.34 239.79 744.75 C 250.87 734.93 265.9 728.86 282.24 728.86 C 298.58 728.86 313.61 734.93 324.69 744.75 C 336.65 755.35 344.05 770.16 344.05 786.67 Z M 289.38 788.69 C 290.11 788.04 290.57 787.32 290.57 786.67 C 290.57 786.02 290.12 785.3 289.39 784.65 C 287.78 783.22 285.27 782.34 282.24 782.34 C 279.22 782.34 276.7 783.22 275.09 784.65 C 274.36 785.3 273.91 786.02 273.91 786.67 C 273.91 787.31 274.36 788.04 275.1 788.69 C 276.71 790.12 279.22 791 282.24 791 C 285.26 791 287.77 790.12 289.38 788.69 Z" style="fill: rgb(254, 254, 254); fill-rule: nonzero;"/>
        <path id="path3785_3" class="fil4" d="M 317.31 786.67 C 317.31 803.82 301.61 817.74 282.24 817.74 C 262.87 817.74 247.17 803.82 247.17 786.67 C 247.17 769.51 262.87 755.6 282.24 755.6 C 301.61 755.6 317.31 769.51 317.31 786.67 Z" style="fill: rgb(254, 254, 254);"/>
        <path class="fil5" d="M 317.56 786.67 C 317.56 795.32 313.6 803.15 307.2 808.82 C 300.81 814.48 291.98 817.98 282.24 817.98 C 272.5 817.98 263.67 814.48 257.28 808.82 C 250.88 803.15 246.92 795.32 246.92 786.67 C 246.92 778.02 250.88 770.18 257.28 764.51 C 263.67 758.85 272.5 755.35 282.24 755.35 C 291.99 755.35 300.81 758.85 307.2 764.51 C 313.6 770.18 317.56 778.01 317.56 786.67 Z M 306.87 808.45 C 313.17 802.87 317.06 795.17 317.06 786.67 C 317.06 778.16 313.17 770.46 306.87 764.88 C 300.57 759.3 291.86 755.84 282.23 755.84 C 272.61 755.84 263.9 759.29 257.59 764.88 C 251.29 770.46 247.4 778.16 247.4 786.67 C 247.4 795.17 251.29 802.88 257.59 808.45 C 263.89 814.03 272.6 817.49 282.22 817.49 C 291.84 817.49 300.55 814.04 306.85 808.45 Z" style="fill: rgb(254, 254, 254); fill-rule: nonzero;"/>
        <path id="path3785_4" class="fil3" d="M 647.48 786.67 C 647.48 803.82 631.78 817.74 612.41 817.74 C 593.05 817.74 577.34 803.82 577.34 786.67 C 577.34 769.51 593.05 755.6 612.41 755.6 C 631.78 755.6 647.48 769.51 647.48 786.67 Z"/>
        <path class="fil6" d="M 674.22 786.67 C 674.22 803.18 666.82 817.99 654.86 828.59 C 643.78 838.41 628.75 844.48 612.41 844.48 C 596.07 844.48 581.04 838.41 569.96 828.59 C 558 817.99 550.6 803.18 550.6 786.67 C 550.6 770.16 558 755.34 569.96 744.75 C 581.04 734.93 596.07 728.86 612.41 728.86 C 628.75 728.86 643.78 734.93 654.86 744.75 C 666.82 755.35 674.22 770.16 674.22 786.67 Z M 619.55 788.69 C 620.28 788.04 620.73 787.32 620.73 786.67 C 620.73 786.02 620.28 785.3 619.55 784.65 C 617.94 783.22 615.43 782.34 612.4 782.34 C 609.38 782.34 606.87 783.22 605.26 784.65 C 604.53 785.3 604.07 786.02 604.07 786.67 C 604.07 787.31 604.52 788.04 605.26 788.69 C 606.87 790.12 609.38 791 612.4 791 C 615.43 791 617.94 790.12 619.55 788.69 Z" style="fill-rule: nonzero;"/>
        <path id="path3785_5" class="fil3" d="M 647.48 786.67 C 647.48 803.82 631.78 817.74 612.41 817.74 C 593.05 817.74 577.34 803.82 577.34 786.67 C 577.34 769.51 593.05 755.6 612.41 755.6 C 631.78 755.6 647.48 769.51 647.48 786.67 Z"/>
        <path class="fil6" d="M 674.22 786.67 C 674.22 803.18 666.82 817.99 654.86 828.59 C 643.78 838.41 628.75 844.48 612.41 844.48 C 596.07 844.48 581.04 838.41 569.96 828.59 C 558 817.99 550.6 803.18 550.6 786.67 C 550.6 770.16 558 755.34 569.96 744.75 C 581.04 734.93 596.07 728.86 612.41 728.86 C 628.75 728.86 643.78 734.93 654.86 744.75 C 666.82 755.35 674.22 770.16 674.22 786.67 Z M 619.55 788.69 C 620.28 788.04 620.73 787.32 620.73 786.67 C 620.73 786.02 620.28 785.3 619.55 784.65 C 617.94 783.22 615.43 782.34 612.4 782.34 C 609.38 782.34 606.87 783.22 605.26 784.65 C 604.53 785.3 604.07 786.02 604.07 786.67 C 604.07 787.31 604.52 788.04 605.26 788.69 C 606.87 790.12 609.38 791 612.4 791 C 615.43 791 617.94 790.12 619.55 788.69 Z" style="fill-rule: nonzero;"/>
        <path id="path3785_6" class="fil3" d="M 647.48 786.67 C 647.48 803.82 631.78 817.74 612.41 817.74 C 593.05 817.74 577.34 803.82 577.34 786.67 C 577.34 769.51 593.05 755.6 612.41 755.6 C 631.78 755.6 647.48 769.51 647.48 786.67 Z"/>
        <path class="fil2" d="M 647.73 786.67 C 647.73 795.32 643.77 803.15 637.37 808.82 C 630.98 814.48 622.15 817.98 612.41 817.98 C 602.67 817.98 593.84 814.48 587.45 808.82 C 581.05 803.15 577.09 795.32 577.09 786.67 C 577.09 778.02 581.05 770.18 587.45 764.51 C 593.84 758.85 602.67 755.35 612.41 755.35 C 622.16 755.35 630.98 758.85 637.37 764.51 C 643.77 770.18 647.73 778.01 647.73 786.67 Z M 637.05 808.45 C 643.35 802.87 647.24 795.17 647.24 786.67 C 647.24 778.16 643.35 770.46 637.05 764.88 C 630.75 759.3 622.04 755.84 612.41 755.84 C 602.79 755.84 594.08 759.29 587.78 764.88 C 581.48 770.46 577.59 778.16 577.59 786.67 C 577.59 795.17 581.48 802.88 587.78 808.45 C 594.08 814.03 602.79 817.49 612.41 817.49 C 622.03 817.49 630.74 814.04 637.05 808.45 Z" style="fill-rule: nonzero;"/>
        <path id="path3785_7" class="fil3" d="M 647.48 786.67 C 647.48 803.82 631.78 817.74 612.41 817.74 C 593.05 817.74 577.34 803.82 577.34 786.67 C 577.34 769.51 593.05 755.6 612.41 755.6 C 631.78 755.6 647.48 769.51 647.48 786.67 Z"/>
        <path class="fil2" d="M 647.73 786.67 C 647.73 795.32 643.77 803.15 637.37 808.82 C 630.98 814.48 622.15 817.98 612.41 817.98 C 602.67 817.98 593.84 814.48 587.45 808.82 C 581.05 803.15 577.09 795.32 577.09 786.67 C 577.09 778.02 581.05 770.18 587.45 764.51 C 593.84 758.85 602.67 755.35 612.41 755.35 C 622.16 755.35 630.98 758.85 637.37 764.51 C 643.77 770.18 647.73 778.01 647.73 786.67 Z M 637.05 808.45 C 643.35 802.87 647.24 795.17 647.24 786.67 C 647.24 778.16 643.35 770.46 637.05 764.88 C 630.75 759.3 622.04 755.84 612.41 755.84 C 602.79 755.84 594.08 759.29 587.78 764.88 C 581.48 770.46 577.59 778.16 577.59 786.67 C 577.59 795.17 581.48 802.88 587.78 808.45 C 594.08 814.03 602.79 817.49 612.41 817.49 C 622.03 817.49 630.74 814.04 637.05 808.45 Z" style="fill-rule: nonzero;"/>
        <path id="path3763" class="fil3" d="M 442.61 1104.64 C 413.08 1104.64 345.45 1162.49 345.45 1202.07 C 345.45 1212.91 348.79 1223.17 354.75 1232.38 C 365.96 1237.09 376.84 1243.95 385.78 1252.48 C 389.96 1256.47 393.41 1260.55 396.16 1264.61 C 410.47 1270.41 426.97 1273.73 444.54 1273.73 C 461.14 1273.73 476.77 1270.78 490.51 1265.56 C 493.36 1261.19 497.02 1256.78 501.53 1252.49 C 511.11 1243.35 522.91 1236.13 534.97 1231.41 C 540.53 1222.46 543.64 1212.53 543.64 1202.08 C 543.64 1162.5 474.07 1104.65 442.61 1104.65 Z"/>
        <path id="path3763_8" class="fil3" d="M 442.61 1104.64 C 413.08 1104.64 345.45 1162.49 345.45 1202.07 C 345.45 1212.91 348.79 1223.17 354.75 1232.38 C 365.96 1237.09 376.84 1243.95 385.78 1252.48 C 389.96 1256.47 393.41 1260.55 396.16 1264.61 C 410.47 1270.41 426.97 1273.73 444.54 1273.73 C 461.14 1273.73 476.77 1270.78 490.51 1265.56 C 493.36 1261.19 497.02 1256.78 501.53 1252.49 C 511.11 1243.35 522.91 1236.13 534.97 1231.41 C 540.53 1222.46 543.64 1212.53 543.64 1202.08 C 543.64 1162.5 474.07 1104.65 442.61 1104.65 Z"/>
        <path class="fil7" d="M 363.53 1021.725 C 355.75 1024.315 345.4 1023.147 340.4 1019.11 C 335.41 1015.072 337.67 1009.701 345.45 1007.106 C 371.78 998.336 407.39 991.46 447.4 991.46 C 479.3 991.46 513.97 995.814 548.93 1007.039 C 556.78 1009.556 559.21 1014.896 554.37 1018.975 C 549.52 1023.049 539.23 1024.31 531.38 1021.798 C 502.37 1012.483 473.71 1008.871 447.41 1008.871 C 414.46 1008.871 385.17 1014.522 363.54 1021.731 Z" style="fill: rgb(235, 236, 236); fill-rule: nonzero;"/>
        <path class="fil2" d="M 106.58 5.52 C 118.95 -3.26 129.69 -1.67 138.75 11.1 L 144.87 19.71 C 217.9 122.47 250.71 168.64 255.45 354.23 C 255.72 364.69 255.83 375.14 255.8 385.56 C 292.87 372.72 330.53 383.07 370.31 394.01 C 395.47 400.93 421.62 408.12 447.8 408.12 C 473.29 408.12 499.85 400.53 525.6 393.18 C 564.66 382.02 602.14 371.32 638.5 382.28 C 638.17 375.04 637.9 367.44 637.69 359.45 C 635.72 282.17 656.58 256.54 686.67 255.77 C 713.46 255.09 741.66 279.26 766.09 300.19 C 778.31 310.66 775.92 330.49 782.38 325.08 C 783.06 324.51 784 313.69 786.36 301.4 C 791.12 276.67 796.03 251.13 815.06 244.87 C 835.22 238.24 858.33 260.83 887.09 348.27 C 900.29 388.41 893.51 427.11 887.2 463.08 C 885.31 473.89 883.46 484.42 882.37 493.89 L 881.92 497.84 L 879.92 501.51 C 874.44 511.55 868.94 524.72 863.65 540.69 C 858.39 556.58 853.55 574.66 849.35 594.59 C 847.65 602.65 846.09 610.94 844.66 619.39 C 843.49 626.26 842.46 632.94 841.54 639.42 C 854.47 674.77 863.85 712.11 870.45 750.94 C 877.28 791.09 881.12 833.02 882.84 876.16 C 884.5 917.86 884.15 959.99 878.9 999.04 C 873.47 1039.48 862.76 1076.73 843.64 1107.15 L 841.5 1110.56 L 838.16 1112.96 C 815.72 1129.09 793.35 1150.39 771.91 1174.67 C 747.92 1201.85 725.09 1232.86 704.64 1264.68 C 695.21 1279.36 687.19 1294.72 680.13 1310.3 C 672.83 1326.39 666.61 1342.45 660.92 1358.16 L 658.61 1364.53 L 653.06 1368.32 C 622.51 1389.16 589.65 1405.46 555.04 1416.52 C 521.31 1427.29 486.22 1433.01 450.27 1433.01 C 412.1 1433.01 375.01 1426.62 339.6 1414.62 C 303.39 1402.36 268.97 1384.14 236.99 1360.83 L 231.88 1357.11 L 229.7 1351.33 C 224.21 1336.79 217.88 1321.93 210.69 1306.83 C 203.7 1292.17 196.15 1277.81 188.02 1263.87 C 170.45 1233.74 151.02 1206.53 130.48 1182.62 C 109.42 1158.1 87.17 1137.09 64.59 1120.03 L 59.69 1116.33 L 57.54 1110.37 C 44.51 1074.15 34.42 1036.04 27.68 996.54 C 21.09 957.93 17.61 917.93 17.61 877 C 17.61 832.69 21.7 789.36 29.43 747.63 C 36.99 706.8 48 667.83 62.01 631.26 C 61.13 627.12 60.13 622.56 58.97 617.52 C 57.47 610.94 55.87 604.45 54.19 598.06 C 49.26 579.38 43.92 562.57 38.37 547.86 C 32.73 532.92 26.92 520.27 21.16 510.16 L 19.32 506.93 L 18.71 503.37 C 17.06 493.77 14.47 482.92 11.81 471.77 C 3.05 434.99 -6.41 395.29 5.9 353.16 C 27.05 280.77 45.08 207.79 59.7 148.61 C 78.92 70.8 92.59 15.49 106.59 5.56 Z M 124.19 62.84 C 118.77 83.86 110.4 117.71 100.31 158.56 C 85.72 217.61 67.73 290.43 46.02 364.75 C 36.87 396.08 45.03 430.33 52.59 462.06 C 55.04 472.35 57.44 482.41 59.35 492.76 C 65.56 504.12 71.68 517.64 77.52 533.08 C 83.57 549.1 89.35 567.29 94.65 587.37 C 96.48 594.29 98.17 601.22 99.76 608.14 C 101.11 614.04 102.6 621.09 104.2 629.02 L 105.43 635.12 L 103.22 640.73 C 89.01 676.74 77.96 715.08 70.54 755.12 C 63.35 793.96 59.54 834.74 59.54 876.95 C 59.54 915.72 62.79 953.36 68.95 989.45 C 74.97 1024.76 83.69 1058.54 94.78 1090.4 C 117.9 1108.44 140.64 1130.24 162.25 1155.39 C 184.39 1181.16 205.32 1210.47 224.21 1242.86 C 233.2 1258.27 241.3 1273.61 248.52 1288.77 C 255.05 1302.48 261.07 1316.47 266.58 1330.65 C 293.58 1349.65 322.55 1364.63 353.03 1374.95 C 384.03 1385.45 416.61 1391.05 450.27 1391.05 C 482.2 1391.05 513.06 1386.07 542.43 1376.69 C 570.86 1367.61 598.18 1354.34 623.99 1337.41 C 629.46 1322.62 635.34 1307.71 641.98 1293.08 C 649.82 1275.8 658.78 1258.64 669.44 1242.05 C 690.82 1208.8 714.94 1176.07 740.64 1146.97 C 762.93 1121.72 786.4 1099.26 810.27 1081.59 C 824.64 1057.28 832.99 1026.88 837.48 993.44 C 842.36 957.1 842.66 917.34 841.09 877.76 C 839.45 836.57 835.76 796.4 829.19 757.79 C 822.71 719.7 813.44 683.29 800.55 649.13 L 798.7 644.22 L 799.41 638.98 C 800.64 629.81 801.97 620.95 803.41 612.49 C 804.89 603.77 806.56 594.95 808.43 586.05 C 813.07 564.03 818.29 544.43 823.87 527.56 C 829.24 511.32 835.11 497.1 841.26 485.24 C 842.51 475.41 844.21 465.74 845.94 455.85 C 851.38 424.8 857.24 391.4 847.3 361.19 C 828.54 304.17 831.12 283.63 828 284.65 C 823.52 286.13 829.94 296.42 827.47 309.24 C 823.67 328.98 819.98 348.17 809.24 357.16 C 788.55 374.48 765.58 354.8 738.91 331.94 C 720.11 315.83 698.41 297.23 687.66 297.51 C 681.98 297.66 678.29 312.63 679.46 358.45 C 679.69 367.61 680.09 377.22 680.62 387.23 C 681.09 396.05 681.76 405.71 682.61 416.12 L 686.47 463.53 L 648.87 434.22 C 618.17 410.29 578.75 421.55 537.07 433.46 C 508.5 441.62 479.02 450.04 447.8 450.04 C 416.61 450.04 387.41 442.01 359.34 434.29 C 317.74 422.85 279.06 412.22 247.29 437.73 L 211.56 466.42 L 213.3 420.69 C 213.72 409.75 213.96 398.92 214.02 388.23 C 214.08 377.49 213.97 366.47 213.68 355.2 C 209.57 194.29 182.78 146.01 124.18 62.83 Z" style="fill-rule: nonzero;"/>
      </g>
    </g>
  </g>
</svg>